# xmcd
#
# Track frame offsets: 
#        150
#        15140
#        28182
#
# Disc length: 570 seconds
#
# Revision: 0
# Processed by: cddbd v1.5.2PL0 Copyright (c) Steve Scherf et al.
# Submitted via: ExactAudioCopyFreeDBPlugin 1.0
#
DISCID=14023803
DTITLE=R.E.M. - The One I Love
DYEAR=1987
DGENRE=
TTITLE0=The One I Love
TTITLE1=Fall On Me
TTITLE2=So. Central Rain
EXTD=
EXTT0=
EXTT1=
EXTT2=
PLAYORDER=
